<svg width="32" height="32" viewBox="0 0 32 32" fill="none" xmlns="http://www.w3.org/2000/svg">
<rect width="32" height="32" rx="5" fill="#5B2EE5"/>
<path d="M15.5 4.0706C16.3333 11.5494 20.5 15.7043 28 16.5353C20.5 17.3663 16.3333 21.5212 15.5 29C14.6667 21.5212 10.5 17.3663 3 16.5353C10.5 15.7043 14.6667 11.5494 15.5 4.0706Z" fill="white"/>
<path d="M23.9375 6.49294C24.1458 8.36264 25.1875 9.40137 27.0625 9.60911C25.1875 9.81686 24.1458 10.8556 23.9375 12.7253C23.7292 10.8556 22.6875 9.81686 20.8125 9.60911C22.6875 9.40137 23.7292 8.36264 23.9375 6.49294Z" fill="white"/>
<path d="M19.5625 4C19.7292 5.49576 20.5625 6.32674 22.0625 6.49294C20.5625 6.65914 19.7292 7.49012 19.5625 8.98588C19.3958 7.49012 18.5625 6.65914 17.0625 6.49294C18.5625 6.32674 19.3958 5.49576 19.5625 4Z" fill="white"/>
</svg>
